<svg width="15" height="28" viewBox="0 0 15 28" fill="none" xmlns="http://www.w3.org/2000/svg">
<path d="M12.6536 6.58193V20.8C12.6536 23.5324 10.4405 25.7455 7.70817 25.7455C4.97582 25.7455 2.76274 23.5324 2.76274 20.8V5.34558C2.76274 3.6394 4.14746 2.25468 5.85363 2.25468C7.5598 2.25468 8.94452 3.6394 8.94452 5.34558V18.3273C8.94452 19.0073 8.38816 19.5637 7.70817 19.5637C7.02817 19.5637 6.47181 19.0073 6.47181 18.3273V6.58193H4.61727V18.3273C4.61727 20.0335 6.00199 21.4182 7.70817 21.4182C9.41434 21.4182 10.7991 20.0335 10.7991 18.3273V5.34558C10.7991 2.61323 8.58598 0.400146 5.85363 0.400146C3.12128 0.400146 0.908203 2.61323 0.908203 5.34558V20.8C0.908203 24.5586 3.94964 27.6 7.70817 27.6C11.4667 27.6 14.5081 24.5586 14.5081 20.8V6.58193H12.6536Z" fill="#828282"/>
</svg>
