<svg width="28" height="28" viewBox="0 0 28 28" fill="none" xmlns="http://www.w3.org/2000/svg">
<path d="M23.6214 4.37982C18.3158 -0.926361 9.68354 -0.92636 4.3789 4.37854C-0.926771 9.68344 -0.926258 18.3159 4.37941 23.6218C9.68354 28.9265 18.3158 28.9265 23.6209 23.6208C28.9261 18.3159 28.9258 9.68395 23.6214 4.37982ZM22.1368 22.1372C17.6502 26.6237 10.3498 26.6242 5.86304 22.1377C1.37548 17.6504 1.37599 10.3492 5.86304 5.86268C10.3496 1.3764 17.6497 1.37589 22.1373 5.86319C26.6238 10.3497 26.6233 17.6509 22.1368 22.1372ZM8.92467 10.3177C8.92467 9.43954 9.63686 8.72735 10.515 8.72735C11.3928 8.72735 12.105 9.43929 12.105 10.3177C12.105 11.1963 11.3928 11.9082 10.515 11.9082C9.63686 11.9082 8.92467 11.1963 8.92467 10.3177ZM16.1356 10.3177C16.1356 9.43954 16.8483 8.72735 17.7264 8.72735C18.6043 8.72735 19.3165 9.43929 19.3165 10.3177C19.3165 11.1963 18.6045 11.9082 17.7264 11.9082C16.8483 11.9082 16.1356 11.1963 16.1356 10.3177ZM19.8953 16.831C18.9097 19.1102 16.6016 20.5828 14.0154 20.5828C11.3736 20.5828 9.05187 19.1027 8.1004 16.812C7.93729 16.4199 8.12323 15.9696 8.51587 15.8064C8.6123 15.7667 8.71232 15.7477 8.8108 15.7477C9.1124 15.7477 9.39861 15.926 9.52145 16.2222C10.2336 17.9369 11.9976 19.0443 14.0154 19.0443C15.9876 19.0443 17.7413 17.9361 18.483 16.2204C18.6517 15.8303 19.1046 15.6505 19.4945 15.8195C19.8843 15.9885 20.0641 16.4412 19.8953 16.831Z" fill="#828282"/>
</svg>
