<svg width="49" height="49" viewBox="0 0 49 49" fill="none" xmlns="http://www.w3.org/2000/svg">
<circle cx="24.5" cy="24.5" r="24.5" fill="#F2F2F2"/>
<path d="M31.6667 19.6667C31.6667 17.8986 30.9643 16.2029 29.714 14.9526C28.4638 13.7024 26.7681 13 25 13C23.2319 13 21.5362 13.7024 20.286 14.9526C19.0357 16.2029 18.3333 17.8986 18.3333 19.6667C18.3333 27.4444 15 29.6667 15 29.6667H35C35 29.6667 31.6667 27.4444 31.6667 19.6667Z" stroke="#8B8B8B" stroke-width="2" stroke-linecap="round" stroke-linejoin="round"/>
<path d="M26.9226 34.1111C26.7272 34.4479 26.4468 34.7274 26.1095 34.9217C25.7721 35.116 25.3897 35.2183 25.0003 35.2183C24.611 35.2183 24.2286 35.116 23.8912 34.9217C23.5539 34.7274 23.2735 34.4479 23.0781 34.1111" stroke="#8B8B8B" stroke-width="2" stroke-linecap="round" stroke-linejoin="round"/>
<circle cx="41" cy="7" r="5" fill="#F7685B"/>
</svg>
