<svg width="49" height="49" viewBox="0 0 49 49" fill="none" xmlns="http://www.w3.org/2000/svg">
<circle cx="24.5" cy="24.5" r="24.5" fill="#F2F2F2"/>
<path d="M25 27C26.6569 27 28 25.6569 28 24C28 22.3431 26.6569 21 25 21C23.3431 21 22 22.3431 22 24C22 25.6569 23.3431 27 25 27Z" stroke="#8B8B8B" stroke-width="2" stroke-linecap="round" stroke-linejoin="round"/>
<path d="M32.4 27C32.2669 27.3016 32.2272 27.6362 32.286 27.9606C32.3448 28.285 32.4995 28.5843 32.73 28.82L32.79 28.88C32.976 29.0657 33.1235 29.2863 33.2241 29.5291C33.3248 29.7719 33.3766 30.0322 33.3766 30.295C33.3766 30.5578 33.3248 30.8181 33.2241 31.0609C33.1235 31.3037 32.976 31.5243 32.79 31.71C32.6043 31.896 32.3837 32.0435 32.1409 32.1441C31.8981 32.2448 31.6378 32.2966 31.375 32.2966C31.1122 32.2966 30.8519 32.2448 30.6091 32.1441C30.3663 32.0435 30.1457 31.896 29.96 31.71L29.9 31.65C29.6643 31.4195 29.365 31.2648 29.0406 31.206C28.7162 31.1472 28.3816 31.1869 28.08 31.32C27.7842 31.4468 27.532 31.6572 27.3543 31.9255C27.1766 32.1938 27.0813 32.5082 27.08 32.83V33C27.08 33.5304 26.8693 34.0391 26.4942 34.4142C26.1191 34.7893 25.6104 35 25.08 35C24.5496 35 24.0409 34.7893 23.6658 34.4142C23.2907 34.0391 23.08 33.5304 23.08 33V32.91C23.0723 32.579 22.9651 32.258 22.7725 31.9887C22.5799 31.7194 22.3107 31.5143 22 31.4C21.6984 31.2669 21.3638 31.2272 21.0394 31.286C20.715 31.3448 20.4157 31.4995 20.18 31.73L20.12 31.79C19.9343 31.976 19.7137 32.1235 19.4709 32.2241C19.2281 32.3248 18.9678 32.3766 18.705 32.3766C18.4422 32.3766 18.1819 32.3248 17.9391 32.2241C17.6963 32.1235 17.4757 31.976 17.29 31.79C17.104 31.6043 16.9565 31.3837 16.8559 31.1409C16.7552 30.8981 16.7034 30.6378 16.7034 30.375C16.7034 30.1122 16.7552 29.8519 16.8559 29.6091C16.9565 29.3663 17.104 29.1457 17.29 28.96L17.35 28.9C17.5805 28.6643 17.7352 28.365 17.794 28.0406C17.8528 27.7162 17.8131 27.3816 17.68 27.08C17.5532 26.7842 17.3428 26.532 17.0745 26.3543C16.8062 26.1766 16.4918 26.0813 16.17 26.08H16C15.4696 26.08 14.9609 25.8693 14.5858 25.4942C14.2107 25.1191 14 24.6104 14 24.08C14 23.5496 14.2107 23.0409 14.5858 22.6658C14.9609 22.2907 15.4696 22.08 16 22.08H16.09C16.421 22.0723 16.742 21.9651 17.0113 21.7725C17.2806 21.5799 17.4857 21.3107 17.6 21C17.7331 20.6984 17.7728 20.3638 17.714 20.0394C17.6552 19.715 17.5005 19.4157 17.27 19.18L17.21 19.12C17.024 18.9343 16.8765 18.7137 16.7759 18.4709C16.6752 18.2281 16.6234 17.9678 16.6234 17.705C16.6234 17.4422 16.6752 17.1819 16.7759 16.9391C16.8765 16.6963 17.024 16.4757 17.21 16.29C17.3957 16.104 17.6163 15.9565 17.8591 15.8559C18.1019 15.7552 18.3622 15.7034 18.625 15.7034C18.8878 15.7034 19.1481 15.7552 19.3909 15.8559C19.6337 15.9565 19.8543 16.104 20.04 16.29L20.1 16.35C20.3357 16.5805 20.635 16.7352 20.9594 16.794C21.2838 16.8528 21.6184 16.8131 21.92 16.68H22C22.2958 16.5532 22.548 16.3428 22.7257 16.0745C22.9034 15.8062 22.9987 15.4918 23 15.17V15C23 14.4696 23.2107 13.9609 23.5858 13.5858C23.9609 13.2107 24.4696 13 25 13C25.5304 13 26.0391 13.2107 26.4142 13.5858C26.7893 13.9609 27 14.4696 27 15V15.09C27.0013 15.4118 27.0966 15.7262 27.2743 15.9945C27.452 16.2628 27.7042 16.4732 28 16.6C28.3016 16.7331 28.6362 16.7728 28.9606 16.714C29.285 16.6552 29.5843 16.5005 29.82 16.27L29.88 16.21C30.0657 16.024 30.2863 15.8765 30.5291 15.7759C30.7719 15.6752 31.0322 15.6234 31.295 15.6234C31.5578 15.6234 31.8181 15.6752 32.0609 15.7759C32.3037 15.8765 32.5243 16.024 32.71 16.21C32.896 16.3957 33.0435 16.6163 33.1441 16.8591C33.2448 17.1019 33.2966 17.3622 33.2966 17.625C33.2966 17.8878 33.2448 18.1481 33.1441 18.3909C33.0435 18.6337 32.896 18.8543 32.71 19.04L32.65 19.1C32.4195 19.3357 32.2648 19.635 32.206 19.9594C32.1472 20.2838 32.1869 20.6184 32.32 20.92V21C32.4468 21.2958 32.6572 21.548 32.9255 21.7257C33.1938 21.9034 33.5082 21.9987 33.83 22H34C34.5304 22 35.0391 22.2107 35.4142 22.5858C35.7893 22.9609 36 23.4696 36 24C36 24.5304 35.7893 25.0391 35.4142 25.4142C35.0391 25.7893 34.5304 26 34 26H33.91C33.5882 26.0013 33.2738 26.0966 33.0055 26.2743C32.7372 26.452 32.5268 26.7042 32.4 27V27Z" stroke="#8B8B8B" stroke-width="2" stroke-linecap="round" stroke-linejoin="round"/>
</svg>
