<svg width="20" height="28" viewBox="0 0 20 28" fill="none" xmlns="http://www.w3.org/2000/svg">
<path fill-rule="evenodd" clip-rule="evenodd" d="M11.25 1.25H13.125C13.2908 1.25 13.4497 1.31585 13.5669 1.43306C13.6842 1.55027 13.75 1.70924 13.75 1.875V3.125C13.75 3.29076 13.6842 3.44973 13.5669 3.56694C13.4497 3.68415 13.2908 3.75 13.125 3.75H6.875C6.70924 3.75 6.55027 3.68415 6.43306 3.56694C6.31585 3.44973 6.25 3.29076 6.25 3.125V1.875C6.25 1.70924 6.31585 1.55027 6.43306 1.43306C6.55027 1.31585 6.70924 1.25 6.875 1.25H8.75C8.75 0.918479 8.8817 0.600537 9.11612 0.366117C9.35054 0.131696 9.66848 0 10 0C10.3315 0 10.6495 0.131696 10.8839 0.366117C11.1183 0.600537 11.25 0.918479 11.25 1.25Z" fill="#B0B0B0"/>
<path fill-rule="evenodd" clip-rule="evenodd" d="M5 2.5H2.5C1.83696 2.5 1.20107 2.76339 0.732233 3.23223C0.263392 3.70107 0 4.33696 0 5L0 25C0 25.663 0.263392 26.2989 0.732233 26.7678C1.20107 27.2366 1.83696 27.5 2.5 27.5H17.5C18.163 27.5 18.7989 27.2366 19.2678 26.7678C19.7366 26.2989 20 25.663 20 25V5C20 4.33696 19.7366 3.70107 19.2678 3.23223C18.7989 2.76339 18.163 2.5 17.5 2.5H15V3.125C15 3.62228 14.8025 4.09919 14.4508 4.45083C14.0992 4.80246 13.6223 5 13.125 5H6.875C6.37772 5 5.90081 4.80246 5.54917 4.45083C5.19754 4.09919 5 3.62228 5 3.125V2.5ZM7.5 11.25C7.5 10.9185 7.6317 10.6005 7.86612 10.3661C8.10054 10.1317 8.41848 10 8.75 10H15C15.3315 10 15.6495 10.1317 15.8839 10.3661C16.1183 10.6005 16.25 10.9185 16.25 11.25C16.25 11.5815 16.1183 11.8995 15.8839 12.1339C15.6495 12.3683 15.3315 12.5 15 12.5H8.75C8.41848 12.5 8.10054 12.3683 7.86612 12.1339C7.6317 11.8995 7.5 11.5815 7.5 11.25ZM5 10C4.75277 10 4.5111 10.0733 4.30554 10.2107C4.09998 10.348 3.93976 10.5432 3.84515 10.7716C3.75054 11.0001 3.72579 11.2514 3.77402 11.4939C3.82225 11.7363 3.9413 11.9591 4.11612 12.1339C4.29093 12.3087 4.51366 12.4278 4.75614 12.476C4.99861 12.5242 5.24995 12.4995 5.47835 12.4049C5.70676 12.3102 5.90199 12.15 6.03934 11.9445C6.17669 11.7389 6.25 11.4972 6.25 11.25C6.25 10.9185 6.1183 10.6005 5.88388 10.3661C5.64946 10.1317 5.33152 10 5 10ZM3.75 16.25C3.75 16.0028 3.82331 15.7611 3.96066 15.5555C4.09801 15.35 4.29324 15.1898 4.52165 15.0951C4.75005 15.0005 5.00139 14.9758 5.24386 15.024C5.48634 15.0722 5.70907 15.1913 5.88388 15.3661C6.0587 15.5409 6.17775 15.7637 6.22598 16.0061C6.27421 16.2486 6.24946 16.4999 6.15485 16.7284C6.06024 16.9568 5.90002 17.152 5.69446 17.2893C5.4889 17.4267 5.24723 17.5 5 17.5C4.66848 17.5 4.35054 17.3683 4.11612 17.1339C3.8817 16.8995 3.75 16.5815 3.75 16.25ZM8.75 15C8.41848 15 8.10054 15.1317 7.86612 15.3661C7.6317 15.6005 7.5 15.9185 7.5 16.25C7.5 16.5815 7.6317 16.8995 7.86612 17.1339C8.10054 17.3683 8.41848 17.5 8.75 17.5H15C15.3315 17.5 15.6495 17.3683 15.8839 17.1339C16.1183 16.8995 16.25 16.5815 16.25 16.25C16.25 15.9185 16.1183 15.6005 15.8839 15.3661C15.6495 15.1317 15.3315 15 15 15H8.75ZM3.75 21.25C3.75 21.0028 3.82331 20.7611 3.96066 20.5555C4.09801 20.35 4.29324 20.1898 4.52165 20.0951C4.75005 20.0005 5.00139 19.9758 5.24386 20.024C5.48634 20.0723 5.70907 20.1913 5.88388 20.3661C6.0587 20.5409 6.17775 20.7637 6.22598 21.0061C6.27421 21.2486 6.24946 21.4999 6.15485 21.7284C6.06024 21.9568 5.90002 22.152 5.69446 22.2893C5.4889 22.4267 5.24723 22.5 5 22.5C4.66848 22.5 4.35054 22.3683 4.11612 22.1339C3.8817 21.8995 3.75 21.5815 3.75 21.25ZM8.75 20C8.41848 20 8.10054 20.1317 7.86612 20.3661C7.6317 20.6005 7.5 20.9185 7.5 21.25C7.5 21.5815 7.6317 21.8995 7.86612 22.1339C8.10054 22.3683 8.41848 22.5 8.75 22.5H15C15.3315 22.5 15.6495 22.3683 15.8839 22.1339C16.1183 21.8995 16.25 21.5815 16.25 21.25C16.25 20.9185 16.1183 20.6005 15.8839 20.3661C15.6495 20.1317 15.3315 20 15 20H8.75Z" fill="#B0B0B0"/>
</svg>
