<svg width="14" height="28" viewBox="0 0 14 28" fill="none" xmlns="http://www.w3.org/2000/svg">
<path d="M10.7577 12.3703C9.69743 11.7798 8.5702 11.3298 7.45413 10.863C6.80681 10.5931 6.18739 10.2781 5.64051 9.83939C4.56351 8.97325 4.76998 7.56718 6.03114 7.01037C6.38828 6.85289 6.76217 6.80227 7.14163 6.77978C8.60368 6.70104 9.99319 6.971 11.3157 7.61217C11.9742 7.93276 12.1919 7.83152 12.4151 7.13973C12.6494 6.40857 12.8448 5.66617 13.0624 4.92938C13.2075 4.43444 13.0289 4.10824 12.5657 3.90014C11.7175 3.52331 10.847 3.25334 9.93181 3.10711C8.73761 2.92151 8.73761 2.91589 8.73203 1.70666C8.72645 0.00249972 8.72645 0.00249969 7.03002 0.00249969C6.78449 0.00249969 6.53895 -0.00312461 6.29342 0.00249969C5.501 0.0249969 5.36708 0.165604 5.34475 0.969879C5.33359 1.32983 5.34476 1.68979 5.33918 2.05537C5.33359 3.12398 5.32801 3.10711 4.31239 3.47832C1.85703 4.3782 0.339175 6.06549 0.177345 8.76515C0.0322553 11.1555 1.27109 12.7697 3.21864 13.9451C4.41842 14.6707 5.74654 15.0981 7.01886 15.6662C7.51551 15.8855 7.98984 16.1386 8.40279 16.4873C9.62489 17.5053 9.40167 19.1982 7.95078 19.8394C7.17511 20.1825 6.3548 20.2668 5.51217 20.16C4.21194 19.9969 2.96752 19.6538 1.79565 19.0407C1.10926 18.6808 0.908371 18.7764 0.673996 19.5244C0.473103 20.1712 0.294532 20.8236 0.115961 21.4761C-0.123995 22.3535 -0.0347094 22.5616 0.796764 22.9721C1.85703 23.4896 2.98984 23.7539 4.14498 23.9395C5.049 24.0857 5.0769 24.1251 5.08806 25.07C5.09364 25.4974 5.09364 25.9305 5.09922 26.358C5.1048 26.8979 5.3615 27.2128 5.91395 27.2241C6.53895 27.2353 7.16953 27.2353 7.79453 27.2185C8.30792 27.2072 8.5702 26.926 8.5702 26.4029C8.5702 25.818 8.5981 25.2275 8.57578 24.6425C8.54788 24.0464 8.80458 23.7427 9.37377 23.5852C10.6852 23.2252 11.8012 22.5166 12.6606 21.4592C15.049 18.5346 14.1394 14.2545 10.7577 12.3703Z" fill="#B0B0B0"/>
</svg>
