<svg width="26" height="26" viewBox="0 0 26 26" fill="none" xmlns="http://www.w3.org/2000/svg">
<path d="M14.5126 9.85566H25.6475C25.0152 7.27485 23.6103 4.94848 21.6206 3.18737C19.6309 1.42626 17.1511 0.31429 14.5126 3.05176e-05V9.85566Z" fill="#B0B0B0"/>
<path d="M15.4003 13.7718C15.2168 14.2261 14.9092 14.6197 14.5126 14.9074V25.9118C17.545 25.5514 20.355 24.1393 22.4539 21.9212C24.5527 19.7031 25.8075 16.8194 26 13.7718H15.4003Z" fill="#B0B0B0"/>
<path d="M11.4581 14.9075C11.1237 14.6654 10.8516 14.3475 10.6639 13.9799C10.4762 13.6123 10.3783 13.2055 10.3783 12.7927C10.3783 12.38 10.4762 11.9731 10.6639 11.6055C10.8516 11.2379 11.1237 10.9201 11.4581 10.678V0C8.29622 0.389438 5.38593 1.92167 3.27545 4.30804C1.16497 6.69441 0 9.77018 0 12.9559C0 16.1416 1.16497 19.2174 3.27545 21.6038C5.38593 23.9901 8.29622 25.5224 11.4581 25.9118V14.9075Z" fill="#B0B0B0"/>
</svg>
