<svg width="28" height="26" viewBox="0 0 28 26" fill="none" xmlns="http://www.w3.org/2000/svg">
<path d="M6.10486 19.0836H0.85583C0.382784 19.0836 0 19.4693 0 19.9458V25.9813H6.96069V19.9458C6.96069 19.4693 6.57791 19.0836 6.10486 19.0836Z" fill="#B0B0B0"/>
<path d="M14.6631 13.9103H9.52813C9.05509 13.9103 8.6723 14.296 8.6723 14.7726V25.9813H15.5189V14.7726C15.5189 14.296 15.1362 13.9103 14.6631 13.9103Z" fill="#B0B0B0"/>
<path d="M27.2497 7.15026L21.259 0.252586C20.9247 -0.0841955 20.3831 -0.0841955 20.0488 0.252586L14.058 7.15026C13.8131 7.39697 13.7395 7.76744 13.8724 8.08997C14.0044 8.41243 14.317 8.62213 14.663 8.62213H17.2305V25.9813H24.0772V8.62213H26.6447C26.9906 8.62213 27.3032 8.41249 27.4353 8.08997C27.5681 7.7675 27.4946 7.39697 27.2497 7.15026Z" fill="#B0B0B0"/>
</svg>
