<svg width="26" height="27" viewBox="0 0 26 27" fill="none" xmlns="http://www.w3.org/2000/svg">
<path d="M9.31199 14.5429C9.31199 14.2127 9.04415 13.9451 8.71366 13.9451H6.62574C6.29564 13.9451 6.02774 14.2127 6.02774 14.5429V16.6305C6.02774 16.9612 6.29564 17.2288 6.62574 17.2288H8.71366C9.04415 17.2288 9.31199 16.9612 9.31199 16.6305V14.5429Z" fill="#B0B0B0"/>
<path d="M14.5299 14.5429C14.5299 14.2127 14.262 13.9451 13.9322 13.9451H11.844C11.5139 13.9451 11.246 14.2127 11.246 14.5429V16.6305C11.246 16.9612 11.5139 17.2288 11.844 17.2288H13.9322C14.262 17.2288 14.5299 16.9612 14.5299 16.6305V14.5429Z" fill="#B0B0B0"/>
<path d="M19.7483 14.5429C19.7483 14.2127 19.4804 13.9451 19.1503 13.9451H17.0623C16.7319 13.9451 16.464 14.2127 16.464 14.5429V16.6305C16.464 16.9612 16.7319 17.2288 17.0623 17.2288H19.1503C19.4804 17.2288 19.7483 16.9612 19.7483 16.6305V14.5429Z" fill="#B0B0B0"/>
<path d="M9.31199 19.7614C9.31199 19.4307 9.04415 19.1634 8.71366 19.1634H6.62574C6.29564 19.1634 6.02774 19.4307 6.02774 19.7614V21.8487C6.02774 22.1791 6.29564 22.4467 6.62574 22.4467H8.71366C9.04415 22.4467 9.31199 22.1791 9.31199 21.8487V19.7614Z" fill="#B0B0B0"/>
<path d="M14.5299 19.7614C14.5299 19.4307 14.262 19.1634 13.9322 19.1634H11.844C11.5139 19.1634 11.246 19.4307 11.246 19.7614V21.8487C11.246 22.1791 11.5139 22.4467 11.844 22.4467H13.9322C14.262 22.4467 14.5299 22.1791 14.5299 21.8487V19.7614Z" fill="#B0B0B0"/>
<path d="M19.7483 19.7614C19.7483 19.4307 19.4804 19.1634 19.1505 19.1634H17.0623C16.7319 19.1634 16.464 19.4307 16.464 19.7614V21.8487C16.464 22.1791 16.7319 22.4467 17.0623 22.4467H19.1505C19.4804 22.4467 19.7483 22.1791 19.7483 21.8487V19.7614Z" fill="#B0B0B0"/>
<path d="M23.4817 2.93517V6.12389C23.4817 7.56516 22.3125 8.7266 20.8714 8.7266H19.2248C17.7836 8.7266 16.5989 7.56516 16.5989 6.12389V2.92372H9.17709V6.12389C9.17709 7.56516 7.99243 8.7266 6.55148 8.7266H4.90453C3.46353 8.7266 2.29437 7.56516 2.29437 6.12389V2.93517C1.03492 2.97313 0 4.01528 0 5.29623V23.9836C0 25.2887 1.05776 26.3605 2.36279 26.3605H23.4132C24.7163 26.3605 25.776 25.2865 25.776 23.9836V5.29623C25.776 4.01528 24.7411 2.97313 23.4817 2.93517ZM22.7169 22.8199C22.7169 23.3839 22.2596 23.8415 21.6954 23.8415H4.03561C3.47141 23.8415 3.01414 23.3839 3.01414 22.8199V13.1672C3.01414 12.603 3.47136 12.1455 4.03561 12.1455H21.6953C22.2595 12.1455 22.7168 12.603 22.7168 13.1672L22.7169 22.8199Z" fill="#B0B0B0"/>
<path d="M4.8987 7.01708H6.52745C7.02183 7.01708 7.42267 6.61682 7.42267 6.12245V0.894948C7.42267 0.400521 7.02183 0 6.52745 0H4.8987C4.40427 0 4.00348 0.400521 4.00348 0.894948V6.12245C4.00348 6.61682 4.40427 7.01708 4.8987 7.01708Z" fill="#B0B0B0"/>
<path d="M19.2038 7.01708H20.8326C21.3267 7.01708 21.7275 6.61682 21.7275 6.12245V0.894948C21.7276 0.400521 21.3267 0 20.8326 0H19.2038C18.7095 0 18.3087 0.400521 18.3087 0.894948V6.12245C18.3087 6.61682 18.7095 7.01708 19.2038 7.01708Z" fill="#B0B0B0"/>
</svg>
