<svg width="34" height="34" viewBox="0 0 34 34" fill="none" xmlns="http://www.w3.org/2000/svg">
<path d="M22.7063 4.9866C22.8139 5.11248 22.9713 5.18494 23.1369 5.18493C23.2727 5.18337 23.4034 5.1331 23.5053 5.04327C23.6195 4.94558 23.6902 4.80652 23.7019 4.65668C23.7136 4.50683 23.6653 4.35848 23.5676 4.24427C22.4912 2.9891 20.9202 2.26673 19.2666 2.2666C18.9537 2.2666 18.7 2.52031 18.7 2.83327C18.7 3.14623 18.9537 3.39993 19.2666 3.39993C20.5898 3.4015 21.8462 3.98108 22.7063 4.9866Z" fill="#109CF1"/>
<path d="M0.980485 13.073C1.29345 13.073 1.54715 12.8193 1.54715 12.5064C1.54715 12.1934 1.29345 11.9397 0.980485 11.9397C0.667524 11.9397 0.413818 12.1934 0.413818 12.5064C0.413818 12.8193 0.667524 13.073 0.980485 13.073Z" fill="#109CF1"/>
<path d="M27.2005 7.93427C27.1927 4.10446 24.45 0.826979 20.6815 0.144206C16.913 -0.538567 13.1948 1.56832 11.8438 5.15194C10.0388 5.34808 8.4393 6.40315 7.54849 7.98527C7.30032 7.95416 7.05058 7.93714 6.80049 7.93427C4.85447 7.92525 2.99783 8.75042 1.70049 10.2009C1.59804 10.3167 1.54736 10.4694 1.56021 10.6235C1.57305 10.7775 1.64829 10.9197 1.76849 11.0169C2.0086 11.1927 2.34125 11.1662 2.55049 10.9546C3.63195 9.74654 5.1791 9.05961 6.80049 9.0676C7.91857 9.06402 9.01206 9.39562 9.93982 10.0196C10.0336 10.0826 10.1441 10.1162 10.2572 10.1159C10.4456 10.1162 10.6219 10.0228 10.7275 9.8666C10.8155 9.74109 10.8489 9.58528 10.82 9.43473C10.7912 9.28418 10.7026 9.15173 10.5745 9.0676C10.0065 8.6861 9.38354 8.39372 8.72715 8.2006C9.53999 7.01545 10.8666 6.2859 12.3028 6.23427H12.4275C13.4228 6.22005 14.3942 6.53921 15.1872 7.14094C15.4375 7.32871 15.7927 7.27797 15.9805 7.0276C16.1683 6.77724 16.1175 6.42205 15.8672 6.23427C15.053 5.62109 14.0872 5.24106 13.0735 5.13494C14.3947 2.21952 17.5702 0.620198 20.6993 1.29431C23.8283 1.96843 26.0636 4.73345 26.0672 7.93427V8.0306C25.1229 8.18359 24.2225 8.5372 23.4265 9.0676C23.1667 9.24286 23.0982 9.59551 23.2735 9.85527C23.4487 10.115 23.8014 10.1835 24.0612 10.0083C24.9902 9.38829 26.0836 9.06067 27.2005 9.0676C30.3301 9.0676 32.8672 11.6047 32.8672 14.7343C32.8672 17.8639 30.3301 20.4009 27.2005 20.4009H25.7668C25.9649 19.6616 26.0658 18.8997 26.0672 18.1343C26.0672 13.1269 22.0079 9.0676 17.0005 9.0676C11.9931 9.0676 7.93382 13.1269 7.93382 18.1343C7.93513 18.8997 8.03609 19.6616 8.23415 20.4009H6.80049C5.29759 20.4009 3.85626 19.8039 2.79355 18.7412C1.73084 17.6785 1.13382 16.2372 1.13382 14.7343C1.13382 14.4213 0.880116 14.1676 0.567155 14.1676C0.254194 14.1676 0.000488281 14.4213 0.000488281 14.7343C0.000488281 18.4898 3.04495 21.5343 6.80049 21.5343H8.60249C9.90437 24.7733 12.9502 26.9772 16.4338 27.2009V28.3343H7.93382C6.99494 28.3343 6.23382 29.0954 6.23382 30.0343V32.3009C6.23382 33.2398 6.99494 34.0009 7.93382 34.0009H26.0672C27.006 34.0009 27.7672 33.2398 27.7672 32.3009V30.0343C27.7672 29.0954 27.006 28.3343 26.0672 28.3343H17.5672V27.2009C21.0508 26.9772 24.0966 24.7733 25.3985 21.5343H27.2005C30.956 21.5343 34.0005 18.4898 34.0005 14.7343C34.0005 10.9787 30.956 7.93427 27.2005 7.93427ZM26.6338 30.0343V32.3009C26.6338 32.6139 26.3801 32.8676 26.0672 32.8676H7.93382C7.62086 32.8676 7.36716 32.6139 7.36716 32.3009V30.0343C7.36716 29.7213 7.62086 29.4676 7.93382 29.4676H26.0672C26.3801 29.4676 26.6338 29.7213 26.6338 30.0343ZM17.0005 10.2009C21.3819 10.2009 24.9338 13.7528 24.9338 18.1343C24.9346 19.6212 24.512 21.0777 23.7155 22.3333C22.6023 21.2104 21.1834 20.4399 19.6355 20.1176C21.2391 18.9721 21.919 16.9219 21.3176 15.0452C20.7161 13.1685 18.9712 11.8954 17.0005 11.8954C15.0298 11.8954 13.2848 13.1685 12.6834 15.0452C12.082 16.9219 12.7619 18.9721 14.3655 20.1176C12.8176 20.4399 11.3987 21.2104 10.2855 22.3333C9.48898 21.0777 9.0664 19.6212 9.06715 18.1343C9.06715 13.7528 12.619 10.2009 17.0005 10.2009ZM13.6005 16.4343C13.6005 14.5565 15.1227 13.0343 17.0005 13.0343C18.8783 13.0343 20.4005 14.5565 20.4005 16.4343C20.4005 18.312 18.8783 19.8343 17.0005 19.8343C15.1227 19.8343 13.6005 18.312 13.6005 16.4343ZM17.0005 26.0676C14.6748 26.0684 12.467 25.0443 10.9655 23.2683C11.9855 22.1349 13.7988 20.9676 17.0005 20.9676C20.2022 20.9676 22.0155 22.1463 23.0355 23.2683C21.534 25.0443 19.3262 26.0684 17.0005 26.0676Z" fill="#109CF1"/>
<path d="M9.63332 31.7334H10.2C10.5129 31.7334 10.7667 31.4797 10.7667 31.1668C10.7667 30.8538 10.5129 30.6001 10.2 30.6001H9.63332C9.32036 30.6001 9.06665 30.8538 9.06665 31.1668C9.06665 31.4797 9.32036 31.7334 9.63332 31.7334Z" fill="#109CF1"/>
<path d="M12.4668 31.7334H13.0335C13.3464 31.7334 13.6001 31.4797 13.6001 31.1668C13.6001 30.8538 13.3464 30.6001 13.0335 30.6001H12.4668C12.1539 30.6001 11.9001 30.8538 11.9001 31.1668C11.9001 31.4797 12.1539 31.7334 12.4668 31.7334Z" fill="#109CF1"/>
<path d="M15.3001 31.7334H15.8667C16.1797 31.7334 16.4334 31.4797 16.4334 31.1668C16.4334 30.8538 16.1797 30.6001 15.8667 30.6001H15.3001C14.9871 30.6001 14.7334 30.8538 14.7334 31.1668C14.7334 31.4797 14.9871 31.7334 15.3001 31.7334Z" fill="#109CF1"/>
<path d="M18.1333 31.7334H18.7C19.0129 31.7334 19.2667 31.4797 19.2667 31.1668C19.2667 30.8538 19.0129 30.6001 18.7 30.6001H18.1333C17.8204 30.6001 17.5667 30.8538 17.5667 31.1668C17.5667 31.4797 17.8204 31.7334 18.1333 31.7334Z" fill="#109CF1"/>
<path d="M20.9668 31.7334H21.5335C21.8464 31.7334 22.1001 31.4797 22.1001 31.1668C22.1001 30.8538 21.8464 30.6001 21.5335 30.6001H20.9668C20.6539 30.6001 20.4001 30.8538 20.4001 31.1668C20.4001 31.4797 20.6539 31.7334 20.9668 31.7334Z" fill="#109CF1"/>
<path d="M23.8001 31.7334H24.3667C24.6797 31.7334 24.9334 31.4797 24.9334 31.1668C24.9334 30.8538 24.6797 30.6001 24.3667 30.6001H23.8001C23.4871 30.6001 23.2334 30.8538 23.2334 31.1668C23.2334 31.4797 23.4871 31.7334 23.8001 31.7334Z" fill="#109CF1"/>
</svg>
