<svg width="35" height="34" viewBox="0 0 35 34" fill="none" xmlns="http://www.w3.org/2000/svg">
<path d="M0.595291 28.3333C0.273125 28.3348 0.0106515 28.0824 0.00904065 27.7695C0.00742982 27.4565 0.267291 27.2015 0.589457 27.2H0.595291C0.917457 27.2 1.17862 27.4537 1.17862 27.7666C1.17862 28.0796 0.917457 28.3333 0.595291 28.3333Z" fill="#109CF1"/>
<path d="M34.7276 2.65427C34.5473 2.54391 34.3194 2.53782 34.1332 2.6384C32.6011 3.41983 30.8816 3.78864 29.1532 3.70657C29.0123 1.62303 27.2328 0.00236706 25.0833 0H4.08333C1.82924 0.00249823 0.00257171 1.77697 0 3.96667V25.5C0 25.813 0.261167 26.0667 0.583333 26.0667C0.905499 26.0667 1.16667 25.813 1.16667 25.5V3.96667C1.16667 2.40186 2.4725 1.13333 4.08333 1.13333C5.69416 1.13333 7 2.40186 7 3.96667C7 5.53147 5.69416 6.8 4.08333 6.8C3.76117 6.8 3.5 7.05371 3.5 7.36667C3.5 7.67963 3.76117 7.93333 4.08333 7.93333H14.9287C11.9198 11.9057 12.9582 15.5091 13.5835 16.932C12.5155 18.7193 11.7303 20.6525 11.2542 22.6667H5.25C4.92783 22.6667 4.66667 22.9204 4.66667 23.2333C4.66667 23.5463 4.92783 23.8 5.25 23.8H11.7349C11.8294 23.8004 11.9222 23.7757 12.0032 23.7286C12.0297 23.7179 12.0552 23.7052 12.0797 23.6906L14.742 21.7974C14.8911 21.6916 14.9798 21.5234 14.9812 21.3441C15.0147 20.4508 15.1122 19.5609 15.2728 18.6807C16.0241 19.0251 16.8461 19.1995 17.6767 19.1907C18.117 19.1902 18.5561 19.1471 18.9875 19.0621C20.7054 18.7082 22.2343 17.7644 23.2937 16.4039C23.3047 16.3931 23.3106 16.3789 23.3211 16.3676C23.6708 15.9307 23.9786 15.4635 24.2404 14.9719C24.3232 14.8149 24.4113 14.6665 24.5029 14.5237V26.0667H4.08333C3.76117 26.0667 3.5 26.3204 3.5 26.6333C3.5 26.9463 3.76117 27.2 4.08333 27.2C5.69416 27.2 7 28.4685 7 30.0333C7 31.5981 5.69416 32.8667 4.08333 32.8667C2.4725 32.8667 1.16667 31.5981 1.16667 30.0333C1.16667 29.7204 0.905499 29.4667 0.583333 29.4667C0.261167 29.4667 0 29.7204 0 30.0333C0.00257171 32.223 1.82924 33.9975 4.08333 34H25.0833C27.2128 33.9841 28.9721 32.3811 29.1247 30.3177C29.2773 28.2543 27.7719 26.4235 25.6667 26.112V13.2033C26.8835 12.1884 28.4352 11.7085 30.0487 11.2092L30.4652 11.08C34.5246 9.8141 34.9813 3.43967 35 3.1688C35.013 2.96178 34.9085 2.76443 34.7276 2.65427ZM6.94167 6.8C7.72686 6.05461 8.16952 5.03316 8.16952 3.96667C8.16952 2.90017 7.72686 1.87872 6.94167 1.13333H25.0833C26.5715 1.13787 27.8164 2.23229 27.9691 3.6703C27.5345 3.6482 27.0941 3.6193 26.6542 3.58927C25.0196 3.42156 23.3706 3.43525 21.7391 3.63007C21.7245 3.63007 21.7117 3.63347 21.6977 3.6363C19.6387 3.94964 17.7434 4.91314 16.3048 6.37783C16.1607 6.51893 16.0236 6.66117 15.89 6.8H6.94167ZM13.825 21.046L12.6747 21.8637C13.0498 20.6261 13.5458 19.4261 14.1557 18.2801C13.9822 19.1939 13.8717 20.1179 13.825 21.046ZM28 30.0333C27.9981 31.5974 26.6934 32.8648 25.0833 32.8667H6.94167C7.72686 32.1213 8.16952 31.0998 8.16952 30.0333C8.16952 28.9668 7.72686 27.9454 6.94167 27.2H25.0833C26.6934 27.2019 27.9981 28.4693 28 30.0333ZM30.1076 10.0005L29.6946 10.1292C28.5049 10.4575 27.3519 10.9006 26.2529 11.4518C25.7575 11.4334 25.2838 11.2499 24.9113 10.9321C24.7637 10.789 24.5487 10.7332 24.3474 10.7858C24.146 10.8383 23.9888 10.9913 23.935 11.187C23.8811 11.3827 23.9389 11.5914 24.0864 11.7345C24.3414 11.9764 24.6415 12.1687 24.9707 12.3012C24.8792 12.376 24.7899 12.4542 24.7013 12.5335C24.6855 12.5471 24.6697 12.5602 24.6552 12.5755C24.0609 13.1165 23.5675 13.7534 23.1968 14.4579C23.0155 14.7996 22.809 15.1282 22.5791 15.4411C21.5191 15.4451 20.4709 15.2242 19.5078 14.794C19.2195 14.6541 18.869 14.7677 18.725 15.0478C18.581 15.3279 18.698 15.6684 18.9863 15.8083C19.8104 16.1916 20.6977 16.4306 21.6073 16.5144C20.8066 17.2377 19.8186 17.736 18.7489 17.956C17.6517 18.2028 16.4994 18.0496 15.5108 17.5253C15.7164 16.6515 16.0042 15.7979 16.3707 14.9753C20.874 9.57667 24.143 8.32377 29.75 7.5684C29.9567 7.5409 30.1326 7.40823 30.2112 7.22046C30.2898 7.0327 30.2592 6.81844 30.1309 6.65857C30.0026 6.49871 29.7962 6.41759 29.5896 6.44583C23.772 7.2301 20.1682 8.60653 15.4297 14.3095C15.4239 14.3157 15.4192 14.3219 15.414 14.3287C15.0331 14.7877 14.6907 15.2484 14.3727 15.7069C13.6983 13.3841 14.1615 10.889 15.6287 8.94143C15.6548 9.22151 15.7019 9.49936 15.7698 9.77273C15.8491 10.0763 16.1667 10.26 16.4792 10.183C16.7917 10.106 16.9808 9.79751 16.9015 9.49393C16.7425 8.84017 16.7142 8.16284 16.8181 7.4987C16.9207 7.3916 17.0246 7.2845 17.1342 7.17683C18.1277 6.17138 19.3677 5.42752 20.7381 5.015C20.5251 5.58737 20.4164 6.19139 20.4167 6.8C20.4167 7.11296 20.6778 7.36667 21 7.36667C21.3222 7.36667 21.5833 7.11296 21.5833 6.8C21.5751 6.06435 21.7796 5.34124 22.1737 4.71297C23.146 4.60004 24.127 4.57349 25.1043 4.63363C24.8906 4.8718 24.7073 5.13418 24.5583 5.41507C24.4153 5.69548 24.5333 6.03544 24.822 6.1744C24.9031 6.21372 24.9927 6.23391 25.0833 6.23333C25.3059 6.23419 25.5095 6.11197 25.6083 5.91827C25.8672 5.44288 26.2396 5.03479 26.6945 4.72827C29.0028 4.8824 31.3763 5.0235 33.7114 4.09247C33.4291 5.8123 32.5681 9.23667 30.1076 10.0005Z" fill="#109CF1"/>
<path d="M5.24984 20.9666H9.91651C10.2387 20.9666 10.4998 20.7129 10.4998 20.3999C10.4998 20.087 10.2387 19.8333 9.91651 19.8333H5.24984C4.92767 19.8333 4.6665 20.087 4.6665 20.3999C4.6665 20.7129 4.92767 20.9666 5.24984 20.9666Z" fill="#109CF1"/>
<path d="M5.24984 18.1333H11.0832C11.4053 18.1333 11.6665 17.8796 11.6665 17.5667C11.6665 17.2537 11.4053 17 11.0832 17H5.24984C4.92767 17 4.6665 17.2537 4.6665 17.5667C4.6665 17.8796 4.92767 18.1333 5.24984 18.1333Z" fill="#109CF1"/>
<path d="M5.24984 15.3001H11.0832C11.4053 15.3001 11.6665 15.0464 11.6665 14.7334C11.6665 14.4205 11.4053 14.1667 11.0832 14.1667H5.24984C4.92767 14.1667 4.6665 14.4205 4.6665 14.7334C4.6665 15.0464 4.92767 15.3001 5.24984 15.3001Z" fill="#109CF1"/>
<path d="M5.24984 12.4666H11.0832C11.4053 12.4666 11.6665 12.2129 11.6665 11.8999C11.6665 11.587 11.4053 11.3333 11.0832 11.3333H5.24984C4.92767 11.3333 4.6665 11.587 4.6665 11.8999C4.6665 12.2129 4.92767 12.4666 5.24984 12.4666Z" fill="#109CF1"/>
</svg>
