<svg width="35" height="34" viewBox="0 0 35 34" fill="none" xmlns="http://www.w3.org/2000/svg">
<path d="M26.802 13.2857C26.9181 12.6765 26.7188 12.0508 26.2688 11.6117L24.1249 9.51837C24.8773 8.04136 24.5835 6.2634 23.3932 5.08927C22.1961 3.9275 20.3686 3.6387 18.8542 4.37195L16.7134 2.28162C16.2663 1.84267 15.6247 1.64684 14.9996 1.75867C14.3745 1.8705 13.8467 2.27537 13.5899 2.84023C12.3794 5.48818 9.94176 10.395 7.21934 13.5042C6.68778 14.1025 6.5983 14.96 6.9954 15.6498L6.39732 16.2338C5.64653 16.9692 5.64653 18.1552 6.39732 18.8906L9.25016 21.6771C9.61069 22.0312 10.1024 22.2299 10.6151 22.2285H10.6157C11.1283 22.2298 11.6198 22.031 11.98 21.6768L12.5174 21.1518L13.055 21.6768C13.0589 21.6807 13.0645 21.6819 13.0685 21.6857C13.115 21.7282 13.1683 21.763 13.2263 21.7887C13.2434 21.7964 13.2606 21.8011 13.2784 21.8072C13.3013 21.8169 13.3249 21.8253 13.3489 21.8321C13.3683 21.8359 15.2687 22.2613 18.334 25.0105C18.6855 25.3272 19.1472 25.503 19.6266 25.5027C20.1417 25.5022 20.6352 25.3015 20.9972 24.9454L21.9576 24.0077C22.3229 23.6502 22.5258 23.1657 22.521 22.662C22.5163 22.1584 22.3044 21.6775 21.9325 21.3265C20.8257 20.2628 19.6528 19.266 18.4203 18.3418C20.7632 16.9651 23.1932 15.7335 25.6957 14.6541C26.2735 14.4022 26.687 13.8906 26.802 13.2857ZM19.7331 5.22972C20.7298 4.91283 21.8252 5.16757 22.5661 5.88854C23.3063 6.61615 23.5673 7.6839 23.2429 8.65708L21.4179 6.87514L19.7331 5.22972ZM11.1529 20.8778C11.0111 21.0173 10.8175 21.0957 10.6157 21.0953H10.6151C10.4131 21.0957 10.2194 21.0174 10.0773 20.8778L7.22447 18.0912C6.9254 17.7984 6.9254 17.326 7.22447 17.0332L7.76164 16.5086L11.6946 20.3485L11.1529 20.8778ZM17.3656 18.9988C18.6972 19.9529 19.9526 21.0033 21.1214 22.1412C21.2688 22.2813 21.3527 22.4726 21.3544 22.673C21.3561 22.8733 21.2755 23.066 21.1305 23.2084L20.1701 24.1461C19.8882 24.4294 19.4255 24.4433 19.1259 24.1777C17.7853 22.9074 16.2433 21.8548 14.5587 21.06C14.6268 21.0012 14.6993 20.9431 14.7692 20.8845C15.5934 20.2042 16.4606 19.5744 17.3656 18.9988ZM25.6548 13.0795C25.6113 13.3191 25.4476 13.5219 25.2184 13.6202C21.9848 14.9971 18.8841 16.6519 15.9536 18.5648C15.8961 18.604 15.8392 18.6431 15.7828 18.6822C15.1319 19.1329 14.516 19.5968 13.9534 20.0707C13.8835 20.1296 13.8171 20.1879 13.7496 20.2464C13.659 20.3249 13.564 20.4028 13.4766 20.4818L8.13597 15.2664V15.2662C7.85044 14.9839 7.83827 14.5352 8.10808 14.2388C10.9256 11.0206 13.4202 6.00415 14.6563 3.30009C14.7556 3.07677 14.9635 2.91659 15.21 2.87343C15.2562 2.8652 15.3031 2.86101 15.3501 2.86095C15.552 2.86121 15.7453 2.9405 15.8862 3.08088L22.7395 9.77251L22.9939 10.0209L22.994 10.021L25.4418 12.411C25.623 12.5854 25.7028 12.8361 25.6548 13.0795Z" fill="#109CF1"/>
<path d="M26.0793 3.23394L27.246 2.10059C27.4703 1.87873 27.4685 1.52279 27.2423 1.30292C27.016 1.08305 26.6495 1.08145 26.4211 1.29933L25.2544 2.43269C25.1049 2.57539 25.0456 2.7851 25.0993 2.98193C25.1529 3.17883 25.3112 3.33256 25.5139 3.38469C25.7165 3.43675 25.9324 3.37924 26.0793 3.23394Z" fill="#109CF1"/>
<path d="M21.0001 1.7V0.566645C21.0001 0.253672 20.739 0 20.4168 0C20.0946 0 19.8335 0.253738 19.8335 0.566645V1.7C19.8335 2.01297 20.0946 2.26664 20.4168 2.26664C20.739 2.26664 21.0001 2.01297 21.0001 1.7Z" fill="#109CF1"/>
<path d="M2.33319 7.93333C2.33354 7.62049 2.59446 7.36695 2.9165 7.36669H9.9165C10.2387 7.36669 10.4998 7.11295 10.4998 6.80004C10.4998 6.48714 10.2386 6.2334 9.9165 6.2334H2.9165C1.95045 6.23439 1.16753 6.99495 1.1665 7.9334V10.2C1.1665 10.5129 1.42771 10.7666 1.74981 10.7666C2.07192 10.7666 2.33312 10.5129 2.33312 10.2V7.93333H2.33319Z" fill="#109CF1"/>
<path d="M1.97154 11.945C1.93845 11.9287 1.90304 11.9173 1.86647 11.9113C1.82798 11.9049 1.78902 11.9011 1.74998 11.8999C1.59556 11.902 1.44763 11.9607 1.33579 12.0643C1.11561 12.2898 1.11561 12.6433 1.33579 12.8689C1.39151 12.92 1.45679 12.9605 1.52809 12.9879C1.59829 13.017 1.67369 13.0324 1.74998 13.0333C1.90441 13.031 2.05227 12.9723 2.16417 12.8689C2.38976 12.6454 2.38976 12.2877 2.16417 12.0643L2.07674 11.9962C2.04407 11.9747 2.00872 11.9575 1.97154 11.945Z" fill="#109CF1"/>
<path d="M33.8333 27.7667V7.9334C33.8323 6.99495 33.0494 6.23439 32.0833 6.2334H26.25C25.9278 6.2334 25.6667 6.48714 25.6667 6.80004C25.6667 7.11302 25.9279 7.36669 26.25 7.36669H32.0833C32.4054 7.36702 32.6663 7.62049 32.6666 7.93333V27.7667H31.5V9.6334C31.4992 9.00779 30.9774 8.50077 30.3333 8.50004H26.25C25.9278 8.50004 25.6667 8.75378 25.6667 9.06669C25.6667 9.37959 25.9279 9.63333 26.25 9.63333H30.3333V27.7667H4.66669V9.6334H8.16669C8.48887 9.6334 8.75 9.37966 8.75 9.06675C8.75 8.75385 8.4888 8.50004 8.16669 8.50004H4.66669C4.02268 8.50077 3.50075 9.00772 3.5 9.6334V27.7668H2.33331V14.7334C2.33331 14.4204 2.07211 14.1668 1.75 14.1668C1.42789 14.1668 1.16669 14.4205 1.16669 14.7334V27.7668C0.522607 27.7674 0.000751953 28.2744 0 28.9V31.1667C0.00191406 32.7308 1.30662 33.9982 2.91669 34H32.0834C33.6934 33.9982 34.9982 32.7308 35.0001 31.1667V28.9C34.9992 28.2744 34.4774 27.7674 33.8333 27.7667ZM22.3894 28.9L21.9673 29.7202C21.8689 29.9125 21.6666 30.034 21.4455 30.0334H13.5545C13.3334 30.034 13.1311 29.9125 13.0327 29.7202L12.6106 28.9H22.3894ZM32.0833 32.8667H2.91669C1.95063 32.8657 1.16771 32.1051 1.16669 31.1667H7.58338C7.90556 31.1667 8.16669 30.913 8.16669 30.6C8.16669 30.2871 7.90549 30.0334 7.58338 30.0334H1.16669V28.9H11.3061L11.9891 30.227C12.284 30.8044 12.8911 31.1689 13.5546 31.1667H21.4455C22.109 31.1689 22.7161 30.8044 23.0109 30.227L23.694 28.9H33.8334V30.0334H27.4167C27.0945 30.0334 26.8334 30.2871 26.8334 30.6C26.8334 30.913 27.0945 31.1667 27.4167 31.1667H33.8334C33.8323 32.1051 33.0494 32.8657 32.0833 32.8667Z" fill="#109CF1"/>
<path d="M10.4999 30.0334H9.91656C9.59438 30.0334 9.33325 30.2871 9.33325 30.6001C9.33325 30.9131 9.59445 31.1667 9.91656 31.1667H10.4999C10.822 31.1667 11.0832 30.9131 11.0832 30.6001C11.0832 30.2871 10.822 30.0334 10.4999 30.0334Z" fill="#109CF1"/>
<path d="M25.0831 30.0334H24.4998C24.1776 30.0334 23.9165 30.2871 23.9165 30.6001C23.9165 30.9131 24.1776 31.1667 24.4998 31.1667H25.0831C25.4053 31.1667 25.6664 30.9131 25.6664 30.6001C25.6664 30.2871 25.4053 30.0334 25.0831 30.0334Z" fill="#109CF1"/>
</svg>
