<svg width="34" height="34" viewBox="0 0 34 34" fill="none" xmlns="http://www.w3.org/2000/svg">
<path d="M32.3 14.1667H31.1667V13.6C31.1559 8.79054 28.3865 4.41391 24.0448 2.34487C24.0374 2.34147 24.0301 2.3392 24.0227 2.33523H24.0182C22.9827 1.84267 21.8826 1.49926 20.7508 1.31523C20.3809 0.515489 19.5811 0.00254794 18.7 0H15.3C14.4186 0.00275263 13.6188 0.51618 13.2492 1.31637C12.1174 1.5004 11.0173 1.84381 9.98183 2.33637H9.9773L9.95803 2.34487H9.95407C7.12341 3.69409 4.90235 6.05672 3.73037 8.96523C3.66932 9.10674 3.67008 9.26731 3.73247 9.40823C3.79486 9.54915 3.91323 9.65765 4.05903 9.70757C4.34666 9.80554 4.66131 9.66622 4.7821 9.3874C5.72982 7.03588 7.4377 5.06945 9.63333 3.80177V10.7667C9.63333 11.0796 9.88704 11.3333 10.2 11.3333C10.513 11.3333 10.7667 11.0796 10.7667 10.7667V3.23C11.4939 2.90749 12.2539 2.66468 13.0333 2.5058V10.7667C13.0333 11.0796 13.287 11.3333 13.6 11.3333C13.913 11.3333 14.1667 11.0796 14.1667 10.7667V2.26667C14.1667 1.64074 14.6741 1.13333 15.3 1.13333H18.7C19.3259 1.13333 19.8333 1.64074 19.8333 2.26667V10.7667C19.8333 11.0796 20.087 11.3333 20.4 11.3333C20.713 11.3333 20.9667 11.0796 20.9667 10.7667V2.50353C21.7462 2.66322 22.5062 2.9068 23.2333 3.23V10.7667C23.2333 11.0796 23.487 11.3333 23.8 11.3333C24.113 11.3333 24.3667 11.0796 24.3667 10.7667V3.79667C27.8644 5.82428 30.0221 9.55705 30.0333 13.6V14.1667H3.96667V13.6C3.96667 13.287 3.71296 13.0333 3.4 13.0333C3.08704 13.0333 2.83333 13.287 2.83333 13.6V14.1667H1.7C0.761116 14.1667 0 14.9278 0 15.8667V17C0.00315978 17.7226 0.462715 18.3642 1.1458 18.5997C1.1577 18.9323 1.17697 19.2706 1.2138 19.6327C1.29787 20.3012 1.81324 20.8339 2.4786 20.94L4.13213 21.2109C4.45528 22.5684 4.99362 23.8655 5.72673 25.0529L4.75433 26.4129C4.35103 26.9611 4.36168 27.7107 4.7804 28.2472C5.09643 28.6315 5.43156 28.9998 5.78453 29.3505C6.10867 29.6752 6.45717 29.9925 6.9003 30.3648C7.43242 30.7753 8.17192 30.7841 8.71363 30.3864L10.0804 29.41C11.268 30.1427 12.565 30.6809 13.9224 31.004L14.1933 32.657C14.299 33.3255 14.8359 33.8425 15.508 33.9229C16.5019 34.0299 17.5044 34.0299 18.4983 33.9229C19.1678 33.8407 19.7016 33.3245 19.8061 32.6581L20.0776 31.0046C21.435 30.6814 22.732 30.1433 23.9196 29.4106L25.2841 30.3864C25.8336 30.7892 26.5847 30.7748 27.1184 30.3512C27.5428 29.9942 27.8913 29.6769 28.2155 29.3522C28.5722 28.9976 28.9107 28.6252 29.2298 28.2364C29.6393 27.704 29.6481 26.9651 29.2513 26.4231L28.2733 25.0563C29.0064 23.8689 29.5447 22.5718 29.8679 21.2143L31.5208 20.9434C32.1888 20.8366 32.7053 20.3003 32.7868 19.6288C32.8236 19.2723 32.8434 18.9352 32.8542 18.6031C33.5385 18.3671 33.9983 17.7238 34 17V15.8667C34 14.9278 33.2389 14.1667 32.3 14.1667ZM31.3367 19.8214L29.3052 20.1541C29.0734 20.192 28.889 20.3689 28.8416 20.5989C28.5354 22.0838 27.9498 23.497 27.1161 24.7633C26.9876 24.9591 26.9928 25.2138 27.1292 25.4042L28.3333 27.0867C28.4299 27.2172 28.4326 27.3947 28.3401 27.5281C28.0481 27.8835 27.7383 28.2239 27.4119 28.5481C27.111 28.8496 26.7852 29.1459 26.4055 29.4661C26.2688 29.5696 26.0799 29.5696 25.9431 29.4661L24.2658 28.2653C24.0753 28.1291 23.8206 28.1242 23.6249 28.2529C22.3599 29.0853 20.9485 29.6703 19.4656 29.9767C19.2356 30.0241 19.0586 30.2084 19.0207 30.4402L18.6875 32.47C18.666 32.6337 18.5399 32.7639 18.377 32.7907C17.4637 32.8893 16.5425 32.8893 15.6292 32.7907C15.4637 32.7658 15.3345 32.6347 15.3119 32.4689L14.9793 30.4374C14.9414 30.2056 14.7644 30.0212 14.5344 29.9738C13.0505 29.6668 11.6383 29.0809 10.3728 28.2472C10.1772 28.1185 9.92246 28.1235 9.73193 28.2597L8.05233 29.4667C7.92421 29.5664 7.74666 29.573 7.61147 29.4831C7.2148 29.1476 6.8867 28.8513 6.5858 28.5498C6.23957 28.2041 5.92733 27.8613 5.66723 27.5434C5.56579 27.4058 5.56694 27.2179 5.67007 27.0816L6.87083 25.4037C7.00721 25.2133 7.01238 24.9586 6.88387 24.7628C6.04963 23.4967 5.4635 22.0837 5.15667 20.5989C5.10926 20.3689 4.92489 20.192 4.69313 20.1541L2.66333 19.8214C2.50131 19.7962 2.37281 19.6715 2.3426 19.5103C2.3137 19.227 2.29613 18.9624 2.28593 18.7H6.2662C6.55421 24.4208 11.2765 28.9113 17.0045 28.9113C22.7325 28.9113 27.4549 24.4208 27.7429 18.7H31.7231C31.7112 18.9612 31.6937 19.2264 31.6665 19.503C31.6375 19.6696 31.5042 19.7983 31.3367 19.8214ZM10.7956 18.7C11.0838 21.912 13.7756 24.3731 17.0006 24.3731C20.2255 24.3731 22.9173 21.912 23.2056 18.7H26.6056C26.3179 23.7943 22.103 27.7779 17.0006 27.7779C11.8981 27.7779 7.68322 23.7943 7.39557 18.7H10.7956ZM11.9334 18.7H22.0666C21.7704 21.2741 19.5911 23.217 17 23.217C14.4089 23.217 12.2296 21.2741 11.9334 18.7ZM32.8667 17C32.8667 17.313 32.613 17.5667 32.3 17.5667H1.7C1.38704 17.5667 1.13333 17.313 1.13333 17V15.8667C1.13333 15.5537 1.38704 15.3 1.7 15.3H32.3C32.613 15.3 32.8667 15.5537 32.8667 15.8667V17Z" fill="#109CF1"/>
<path d="M3.63005 11.9107C3.31709 11.9122 3.06212 11.6598 3.06055 11.3468C3.05899 11.0339 3.31143 10.7789 3.62439 10.7773H3.63005C3.94302 10.7773 4.19672 11.031 4.19672 11.344C4.19672 11.657 3.94302 11.9107 3.63005 11.9107Z" fill="#109CF1"/>
</svg>
