<svg width="34" height="34" viewBox="0 0 34 34" fill="none" xmlns="http://www.w3.org/2000/svg">
<path d="M33.511 8.25166L31.9259 7.7232C31.7672 7.19833 31.557 6.69045 31.2983 6.20695L32.0429 4.71282C32.1381 4.5219 32.118 4.29373 31.9909 4.12234C31.3947 3.31816 30.6831 2.60643 29.879 2.0101C29.7074 1.8832 29.4793 1.86308 29.2882 1.9581L27.794 2.70298C27.3105 2.44426 26.8027 2.23409 26.2778 2.07544L25.7496 0.489406C25.6819 0.286868 25.5062 0.139447 25.295 0.108103C24.304 -0.0346695 23.2977 -0.0346695 22.3067 0.108103C22.0955 0.139447 21.9197 0.286801 21.8521 0.489406L21.3239 2.07538C20.799 2.23402 20.291 2.44426 19.8074 2.70291L19.1083 2.35528C16.4556 -0.057314 12.6287 -0.676416 9.35066 0.776678C6.0726 2.22977 3.96143 5.48107 3.9676 9.06679V9.17124C3.29033 9.40977 2.83644 10.0487 2.83425 10.7668V14.1668C2.83644 14.8848 3.29033 15.5238 3.9676 15.7623V17.0001C3.96893 18.2514 4.98295 19.2654 6.23423 19.2667H7.01357C7.42642 20.1347 7.92466 20.9594 8.50086 21.7287V23.0353C8.50292 23.5842 8.20257 24.0899 7.71947 24.3506L2.66598 27.1098C1.02151 28.0032 -0.00147604 29.7257 0.000980979 31.5972V33.4334C0.000914573 33.5836 0.0606134 33.7278 0.166929 33.8341C0.273245 33.9404 0.417346 34.0001 0.567689 34.0001H2.83432C3.14729 34.0001 3.40096 33.7463 3.40096 33.4334C3.40096 33.1205 3.14722 32.8668 2.83432 32.8668H1.13433V31.5972C1.1322 30.141 1.92815 28.8005 3.20785 28.1054L8.25968 25.3474C9.10874 24.8887 9.63694 24.0004 9.63428 23.0353V21.7288C9.63541 21.4817 9.55466 21.2412 9.40465 21.0448C8.98377 20.4824 8.60758 19.888 8.27967 19.2668H10.8721C11.1106 19.9441 11.7496 20.3979 12.4676 20.4001H14.1676C15.1065 20.4001 15.8676 19.639 15.8676 18.7002C15.8676 17.7613 15.1065 17.0002 14.1676 17.0002H12.4676C11.7496 17.0024 11.1106 17.4562 10.872 18.1335H7.75619C7.59828 17.7438 7.46839 17.3432 7.36765 16.9349V9.06679C7.36765 9.04202 7.36599 9.01718 7.36267 8.99261C7.27959 7.96173 7.60611 6.93961 8.2713 6.14765C9.21008 5.07686 10.8127 4.53346 13.0343 4.53346C15.2475 4.53346 16.8468 5.07301 17.7873 6.13663C18.4538 6.93257 18.7835 7.95728 18.7059 8.99261C18.7025 9.01718 18.7009 9.04195 18.7009 9.06679V16.9348C18.293 18.4232 17.6013 19.8188 16.6639 21.0448C16.5138 21.2412 16.433 21.4817 16.4342 21.7288V23.0918C16.4279 24.0791 16.9791 24.9855 17.8586 25.4342L22.7364 28.1486C24.0872 28.8209 24.9393 30.2019 24.9342 31.7107V32.8667H7.36758C7.05461 32.8667 6.80094 33.1205 6.80094 33.4334C6.80094 33.7463 7.05468 34 7.36758 34H25.5008C25.6511 34.0001 25.7953 33.9404 25.9016 33.8341C26.0078 33.7278 26.0675 33.5836 26.0675 33.4333V31.7107C26.0762 29.7808 24.9908 28.0127 23.266 27.1469L18.3894 24.4331C17.883 24.1782 17.5646 23.6586 17.5676 23.0917L17.5648 21.732C18.5004 20.4923 19.2165 19.1013 19.6821 17.6196C20.2024 17.9132 20.7528 18.1497 21.3239 18.3249L21.8521 19.9109C21.9198 20.1134 22.0955 20.2608 22.3067 20.2922C23.2976 20.4361 24.3041 20.4361 25.295 20.2922C25.5062 20.2608 25.6819 20.1135 25.7496 19.9109L26.2778 18.3249C26.8027 18.1663 27.3106 17.9561 27.794 17.6974L29.2882 18.4422C29.4789 18.5389 29.708 18.5187 29.8789 18.3902C30.6828 17.7937 31.3945 17.082 31.9909 16.278C32.1179 16.1067 32.138 15.8784 32.0429 15.6875L31.2983 14.1934C31.5569 13.7099 31.7672 13.202 31.9258 12.6771L33.511 12.1487C33.7137 12.0813 33.8613 11.9056 33.8925 11.6943C34.0368 10.7035 34.0368 9.69691 33.8925 8.70607C33.8613 8.4947 33.7137 8.31899 33.511 8.25166ZM12.4676 18.1334H14.1675C14.4805 18.1334 14.7342 18.3871 14.7342 18.7001C14.7342 19.0131 14.4804 19.2667 14.1675 19.2667H12.4676C12.1546 19.2667 11.9009 19.0131 11.9009 18.7001C11.9009 18.3871 12.1546 18.1334 12.4676 18.1334ZM3.9676 10.7668C3.96793 10.4539 4.22141 10.2004 4.53424 10.2001H6.23423V14.7335H4.53424C4.22141 14.7331 3.96787 14.4797 3.9676 14.1668V10.7668ZM6.23423 18.1334C5.60862 18.1327 5.10161 17.6258 5.10088 17.0001V15.8668H6.23423V17.0001C6.23417 17.0427 6.23901 17.0853 6.24864 17.1268C6.32966 17.4677 6.42967 17.8037 6.54813 18.1334H6.23423V18.1334ZM18.6494 5.40118C17.486 4.07307 15.5967 3.40017 13.0343 3.40017C10.4719 3.40017 8.58254 4.07307 7.41911 5.40118C6.55617 6.41905 6.12945 7.73621 6.23158 9.06679H5.10095C5.10095 4.68533 8.6528 1.13348 13.0343 1.13348C17.4157 1.13348 20.9676 4.68533 20.9676 9.06679H19.8369C19.9391 7.73628 19.5124 6.41912 18.6494 5.40118ZM19.8342 10.2001H21.5341C21.847 10.2005 22.1005 10.4539 22.1008 10.7668V14.1668C22.1005 14.4796 21.847 14.7331 21.5341 14.7334H19.8342V10.2001ZM22.1009 9.17124V9.06679C22.0998 8.10218 21.944 7.14401 21.6394 6.22873C22.301 5.86231 23.0445 5.669 23.8008 5.66674C25.5049 5.65751 27.0703 6.60466 27.8527 8.11851C28.6352 9.63237 28.5026 11.4571 27.5095 12.842C26.5164 14.2268 24.8305 14.9377 23.1457 14.6822C23.2019 14.5161 23.2318 14.3421 23.2341 14.1667V10.7667C23.2319 10.0487 22.7781 9.40977 22.1009 9.17124ZM32.8152 11.1863L31.2831 11.6971C31.1014 11.7574 30.9626 11.9054 30.914 12.0905C30.7487 12.7221 30.4978 13.3281 30.1684 13.8918C30.0719 14.0569 30.0651 14.2596 30.1504 14.4308L30.8703 15.8756C30.4576 16.3896 29.9901 16.857 29.4761 17.2696L28.0318 16.5497C27.8607 16.4639 27.6578 16.4706 27.4927 16.5674C26.9292 16.897 26.3231 17.1477 25.6915 17.3128C25.5063 17.3615 25.3582 17.5003 25.2975 17.6819L24.787 19.2147C24.1313 19.2833 23.4703 19.2833 22.8147 19.2147L22.3042 17.6819C22.2435 17.5003 22.0953 17.3615 21.9102 17.3128C21.2698 17.1447 20.6555 16.8894 20.0846 16.5541C19.9958 16.5044 19.912 16.4463 19.8342 16.3807V15.8668H21.5341C21.8093 15.8648 22.0799 15.7952 22.3218 15.6641C22.8034 15.7984 23.3009 15.8665 23.8008 15.8668C26.1553 15.8762 28.2704 14.4287 29.114 12.2305C29.9577 10.0323 29.3541 7.54138 27.5977 5.9732C25.8414 4.40503 23.2983 4.08628 21.2093 5.17255C20.9652 4.66182 20.6738 4.17513 20.3388 3.71879C20.8357 3.44679 21.3631 3.23489 21.9101 3.08754C22.0952 3.03879 22.2434 2.90001 22.3041 2.71845L22.8146 1.18561C23.4702 1.11701 24.1312 1.11701 24.7868 1.18561L25.2974 2.71845C25.3581 2.90007 25.5062 3.03879 25.6913 3.08754C26.323 3.25262 26.929 3.50337 27.4926 3.83294C27.6578 3.9295 27.8605 3.93614 28.0316 3.85067L29.476 3.1307C29.9901 3.54315 30.4576 4.01058 30.8702 4.52469L30.1502 5.96955C30.065 6.14075 30.0717 6.34342 30.1682 6.50857C30.4977 7.07222 30.7486 7.67824 30.9139 8.30983C30.9625 8.49497 31.1014 8.64299 31.283 8.70328L32.815 9.21408C32.8849 9.86963 32.8849 10.5307 32.8152 11.1863Z" fill="#109CF1"/>
<path d="M5.5022 33.8355C5.55333 33.7814 5.59377 33.718 5.6212 33.6487C5.65028 33.5805 5.66569 33.5073 5.66655 33.4332C5.66562 33.2041 5.52736 32.9978 5.3158 32.91C5.10416 32.8221 4.86052 32.8697 4.69756 33.0308L4.62949 33.1158C4.60798 33.1474 4.59078 33.1817 4.57829 33.2179C4.56196 33.25 4.5506 33.2844 4.54456 33.32C4.53818 33.3574 4.5344 33.3952 4.5332 33.4331C4.53526 33.5831 4.59396 33.7268 4.69756 33.8355C4.92314 34.0495 5.27662 34.0495 5.5022 33.8355Z" fill="#109CF1"/>
</svg>
