<svg width="34" height="34" viewBox="0 0 34 34" fill="none" xmlns="http://www.w3.org/2000/svg">
<path d="M17 21.5644C20.4425 21.5644 23.2333 18.7735 23.2333 15.331C23.2333 11.8885 20.4425 9.09766 17 9.09766C13.5575 9.09766 10.7666 11.8885 10.7666 15.331C10.7708 18.772 13.559 21.5602 17 21.5644ZM17 10.231C19.8165 10.231 22.1 12.5145 22.1 15.331C22.1 18.1476 19.8165 20.4311 17 20.4311C14.1834 20.4311 11.8999 18.1476 11.8999 15.331C11.903 12.5158 14.1847 10.2341 17 10.231Z" fill="#109CF1"/>
<path d="M14.4308 18.4994C14.595 18.6031 14.801 18.6153 14.9766 18.5321L20.6432 15.8429C20.8406 15.7487 20.9664 15.5497 20.9664 15.3311C20.9664 15.1124 20.8406 14.9132 20.6432 14.8193L14.9766 12.1298C14.8012 12.0468 14.5958 12.059 14.4316 12.1623C14.2674 12.2658 14.1675 12.446 14.1668 12.6401V18.0187C14.1662 18.2138 14.2661 18.3951 14.4308 18.4994ZM15.3001 13.5376L19.0787 15.3311L15.3001 17.1246V13.5376Z" fill="#109CF1"/>
<path d="M0.566849 9.66458C0.716782 9.66225 0.860489 9.60362 0.969178 9.50012C1.18811 9.27678 1.18811 8.91881 0.969178 8.69547L0.884095 8.6275C0.852448 8.60597 0.818207 8.58885 0.782151 8.5764C0.749985 8.56006 0.715485 8.54865 0.679947 8.54242C0.642594 8.53619 0.604721 8.5323 0.566849 8.53101C0.416657 8.53334 0.27295 8.59196 0.164521 8.69547C0.11316 8.74968 0.0726933 8.81323 0.0454564 8.88249C-0.0401455 9.0939 0.00654643 9.33566 0.164521 9.50012C0.218476 9.55148 0.282029 9.59169 0.351288 9.61919C0.41951 9.64824 0.492661 9.66354 0.566849 9.66458Z" fill="#109CF1"/>
<path d="M30.0333 3.9976H4.53326V1.16444C4.53326 0.851349 4.27957 0.597656 3.96674 0.597656C1.77689 0.60025 0.00259399 2.37454 0 4.56439V6.83102C0 7.14386 0.253693 7.39755 0.566788 7.39755C0.879623 7.39755 1.13332 7.14386 1.13332 6.83102V4.56439C1.13513 3.21837 2.08168 2.05885 3.39995 1.78778V18.7764C2.53848 18.9001 1.74161 19.3045 1.13332 19.9273V11.3643C1.13332 11.0515 0.879623 10.7978 0.566788 10.7978C0.253693 10.7978 0 11.0515 0 11.3643V22.6977C0.00259399 24.8873 1.77689 26.6618 3.96674 26.6644H29.4667V32.8975C29.4667 33.2106 29.7204 33.4643 30.0333 33.4643C31.8882 33.4612 33.4939 32.1746 33.9014 30.3653C33.9632 30.2768 33.9974 30.172 34 30.0644V7.96434C34.001 7.51428 33.9235 7.0676 33.7704 6.64451C33.2143 5.05725 31.7152 3.99553 30.0333 3.9976ZM32.703 7.02479C32.7728 7.22661 32.8184 7.43568 32.8394 7.64813C31.8983 6.82791 30.7126 6.34154 29.4667 6.26424V5.17113C29.5015 5.17476 29.5365 5.17476 29.5715 5.17113C29.7238 5.14337 29.8784 5.12988 30.0333 5.13092C31.2356 5.12936 32.3072 5.8894 32.703 7.02479ZM27.2001 6.26424V5.13092H28.3334V6.26424H27.2001ZM24.9332 6.26424V5.13092H26.0668V6.26424H24.9332ZM22.6666 6.26424V5.13092H23.7999V6.26424H22.6666ZM20.3999 6.26424V5.13092H21.5333V6.26424H20.3999ZM18.1333 6.26424V5.13092H19.2666V6.26424H18.1333ZM15.8667 6.26424V5.13092H17V6.26424H15.8667ZM13.6001 6.26424V5.13092H14.7334V6.26424H13.6001ZM11.3334 6.26424V5.13092H12.4667V6.26424H11.3334ZM9.06679 6.26424V5.13092H10.2001V6.26424H9.06679ZM6.7999 6.26424V5.13092H7.93321V6.26424H6.7999ZM5.66658 5.13092V6.26424H4.53326V5.13092H5.66658ZM3.96674 19.8643C4.27957 19.8643 4.53326 19.6106 4.53326 19.2978V7.39755H29.4634C30.8172 7.51584 32.0558 8.20714 32.8667 9.29765V24.2147C31.8332 23.6126 30.6626 23.2852 29.4667 23.2642H3.96674C2.97246 23.2635 1.99893 22.9817 1.15822 22.4513C1.28273 20.9914 2.50165 19.8687 3.96674 19.8643ZM4.53326 24.3975H5.66658V25.5309H4.53326V24.3975ZM6.7999 24.3975H7.93321V25.5309H6.7999V24.3975ZM9.06679 24.3975H10.2001V25.5309H9.06679V24.3975ZM11.3334 24.3975H12.4667V25.5309H11.3334V24.3975ZM13.6001 24.3975H14.7334V25.5309H13.6001V24.3975ZM15.8667 24.3975H17V25.5309H15.8667V24.3975ZM18.1333 24.3975H19.2666V25.5309H18.1333V24.3975ZM20.3999 24.3975H21.5333V25.5309H20.3999V24.3975ZM22.6666 24.3975H23.7999V25.5309H22.6666V24.3975ZM24.9332 24.3975H26.0668V25.5309H24.9332V24.3975ZM27.2001 24.3975H28.3334V25.5309H27.2001V24.3975ZM1.40646 23.8917C2.04485 24.1444 2.71617 24.3039 3.39995 24.3649V25.4743C2.52292 25.2912 1.78389 24.7044 1.40646 23.8917ZM30.6001 32.2742V26.721C31.9204 26.9892 32.8695 28.1503 32.8695 29.4976C32.8695 30.8452 31.9204 32.0062 30.6001 32.2742ZM30.0333 25.5309H29.4667V24.3975C30.1466 24.3975 32.0252 24.6486 32.8667 25.735V26.7272C32.1225 25.9622 31.1007 25.5309 30.0333 25.5309Z" fill="#109CF1"/>
<path d="M7.36671 9.66444C7.36671 9.97728 7.11302 10.231 6.79993 10.231C6.48709 10.231 6.2334 9.97728 6.2334 9.66444C6.2334 9.35135 6.48709 9.09766 6.79993 9.09766C7.11302 9.09766 7.36671 9.35135 7.36671 9.66444Z" fill="#109CF1"/>
<path d="M7.36671 11.931C7.36671 12.2439 7.11302 12.4976 6.79993 12.4976C6.48709 12.4976 6.2334 12.2439 6.2334 11.931C6.2334 11.618 6.48709 11.3643 6.79993 11.3643C7.11302 11.3643 7.36671 11.618 7.36671 11.931Z" fill="#109CF1"/>
<path d="M7.36671 14.1976C7.36671 14.5105 7.11302 14.7642 6.79993 14.7642C6.48709 14.7642 6.2334 14.5105 6.2334 14.1976C6.2334 13.8846 6.48709 13.6309 6.79993 13.6309C7.11302 13.6309 7.36671 13.8846 7.36671 14.1976Z" fill="#109CF1"/>
<path d="M7.36671 16.4642C7.36671 16.7771 7.11302 17.0308 6.79993 17.0308C6.48709 17.0308 6.2334 16.7771 6.2334 16.4642C6.2334 16.1512 6.48709 15.8975 6.79993 15.8975C7.11302 15.8975 7.36671 16.1512 7.36671 16.4642Z" fill="#109CF1"/>
<path d="M7.36671 18.7311C7.36671 19.0442 7.11302 19.2979 6.79993 19.2979C6.48709 19.2979 6.2334 19.0442 6.2334 18.7311C6.2334 18.4182 6.48709 18.1646 6.79993 18.1646C7.11302 18.1646 7.36671 18.4182 7.36671 18.7311Z" fill="#109CF1"/>
<path d="M7.36671 20.9977C7.36671 21.3108 7.11302 21.5645 6.79993 21.5645C6.48709 21.5645 6.2334 21.3108 6.2334 20.9977C6.2334 20.6848 6.48709 20.4312 6.79993 20.4312C7.11302 20.4312 7.36671 20.6848 7.36671 20.9977Z" fill="#109CF1"/>
<path d="M27.7666 9.66444C27.7666 9.97728 27.5129 10.231 27.2001 10.231C26.887 10.231 26.6333 9.97728 26.6333 9.66444C26.6333 9.35135 26.887 9.09766 27.2001 9.09766C27.5129 9.09766 27.7666 9.35135 27.7666 9.66444Z" fill="#109CF1"/>
<path d="M27.7666 11.931C27.7666 12.2439 27.5129 12.4976 27.2001 12.4976C26.887 12.4976 26.6333 12.2439 26.6333 11.931C26.6333 11.618 26.887 11.3643 27.2001 11.3643C27.5129 11.3643 27.7666 11.618 27.7666 11.931Z" fill="#109CF1"/>
<path d="M27.7666 14.1976C27.7666 14.5105 27.5129 14.7642 27.2001 14.7642C26.887 14.7642 26.6333 14.5105 26.6333 14.1976C26.6333 13.8846 26.887 13.6309 27.2001 13.6309C27.5129 13.6309 27.7666 13.8846 27.7666 14.1976Z" fill="#109CF1"/>
<path d="M27.7666 16.4642C27.7666 16.7771 27.5129 17.0308 27.2001 17.0308C26.887 17.0308 26.6333 16.7771 26.6333 16.4642C26.6333 16.1512 26.887 15.8975 27.2001 15.8975C27.5129 15.8975 27.7666 16.1512 27.7666 16.4642Z" fill="#109CF1"/>
<path d="M27.7666 18.7311C27.7666 19.0442 27.5129 19.2979 27.2001 19.2979C26.887 19.2979 26.6333 19.0442 26.6333 18.7311C26.6333 18.4182 26.887 18.1646 27.2001 18.1646C27.5129 18.1646 27.7666 18.4182 27.7666 18.7311Z" fill="#109CF1"/>
<path d="M27.7666 20.9977C27.7666 21.3108 27.5129 21.5645 27.2001 21.5645C26.887 21.5645 26.6333 21.3108 26.6333 20.9977C26.6333 20.6848 26.887 20.4312 27.2001 20.4312C27.5129 20.4312 27.7666 20.6848 27.7666 20.9977Z" fill="#109CF1"/>
</svg>
