<svg width="22" height="22" viewBox="0 0 22 22" fill="none" xmlns="http://www.w3.org/2000/svg">
<path d="M21.9993 16.4712V19.7831C22.0006 20.0906 21.9375 20.3949 21.814 20.6766C21.6906 20.9583 21.5096 21.2112 21.2826 21.419C21.0556 21.6269 20.7876 21.7851 20.4958 21.8836C20.2039 21.9821 19.8947 22.0187 19.5879 21.991C16.1841 21.6219 12.9145 20.4611 10.0418 18.6019C7.36914 16.9069 5.10319 14.6455 3.40487 11.9781C1.53545 9.09809 0.372066 5.81909 0.00897833 2.40674C-0.0186639 2.10146 0.0176892 1.79378 0.115723 1.50329C0.213756 1.2128 0.371322 0.94586 0.578389 0.719472C0.785455 0.493085 1.03749 0.312208 1.31843 0.188357C1.59938 0.0645062 1.90309 0.000395695 2.21023 0.000107032H5.52869C6.06551 -0.00516598 6.58594 0.184556 6.99297 0.533909C7.4 0.883262 7.66586 1.36841 7.74099 1.89892C7.88106 2.9588 8.14081 3.99946 8.5153 5.00106C8.66413 5.39619 8.69634 5.82562 8.60812 6.23847C8.51989 6.65131 8.31494 7.03026 8.01753 7.33042L6.61272 8.73245C8.18739 11.4963 10.4803 13.7847 13.2496 15.3562L14.6545 13.9542C14.9552 13.6574 15.3349 13.4528 15.7486 13.3648C16.1622 13.2767 16.5925 13.3089 16.9884 13.4574C17.992 13.8312 19.0348 14.0904 20.0967 14.2302C20.6341 14.3058 21.1248 14.576 21.4756 14.9892C21.8264 15.4024 22.0128 15.9298 21.9993 16.4712Z" fill="#B0B0B0"/>
</svg>
