<svg width="22" height="25" viewBox="0 0 22 25" fill="none" xmlns="http://www.w3.org/2000/svg">
<path d="M17.6667 7.66667C17.6667 5.89856 16.9643 4.20286 15.714 2.95262C14.4638 1.70238 12.7681 1 11 1C9.23189 1 7.5362 1.70238 6.28596 2.95262C5.03571 4.20286 4.33333 5.89856 4.33333 7.66667C4.33333 15.4444 1 17.6667 1 17.6667H21C21 17.6667 17.6667 15.4444 17.6667 7.66667Z" stroke="#8B8B8B" stroke-width="2" stroke-linecap="round" stroke-linejoin="round"/>
<path d="M12.9222 22.1111C12.7269 22.4479 12.4465 22.7274 12.1091 22.9217C11.7718 23.116 11.3893 23.2183 11 23.2183C10.6107 23.2183 10.2282 23.116 9.89084 22.9217C9.55349 22.7274 9.2731 22.4479 9.07776 22.1111" stroke="#8B8B8B" stroke-width="2" stroke-linecap="round" stroke-linejoin="round"/>
</svg>
